<svg width="500" height="500" viewBox="0 0 500 500" fill="none" xmlns="http://www.w3.org/2000/svg">
<rect width="500" height="500" fill="white"/>
<path d="M144.277 136.802C134.298 140.376 124.319 152.07 122.324 162.14C120.328 172.535 127.978 193 133.966 193C135.296 193 141.284 185.853 147.271 177.083C152.926 167.987 162.572 156.942 168.227 152.395C174.214 147.522 177.208 142.649 175.545 141.025C171.553 137.452 150.597 134.528 144.277 136.802Z" fill="#2D2D2D"/>
<path d="M333.944 137.513C323.037 140.739 322.045 145.9 331.3 152.03C335.597 154.61 344.851 164.934 351.792 174.934C358.733 184.935 365.674 193 366.996 193C368.649 193 372.285 188.484 375.259 182.999C388.811 157.191 363.361 129.125 333.944 137.513Z" fill="#2D2D2D"/>
<path d="M189.925 165.794C175.79 172.789 163 190.777 163 203.768C163 222.422 180.502 218.758 184.877 199.438C186.223 193.775 191.945 184.115 197.33 177.786C210.119 163.462 206.417 157.466 189.925 165.794Z" fill="#2D2D2D"/>
<path d="M234.155 166.632C224.93 169.264 219 174.528 219 180.449C219 181.765 223.942 186.042 230.201 189.66C236.461 193.279 242.391 198.543 243.38 201.174C246.345 209.07 239.097 218.939 228.554 221.242C217.023 223.545 216.694 226.176 225.919 240.651C236.461 257.758 259.194 272.233 274.019 270.917C290.492 269.601 294.445 262.363 288.186 244.599C284.562 234.072 280.279 228.808 272.042 224.86C246.345 212.031 243.05 199.53 261.829 188.673C272.701 182.423 273.69 179.791 267.759 172.225C262.488 165.645 246.674 163.013 234.155 166.632Z" fill="#2D2D2D"/>
<path d="M283.158 166.563C282.194 168.152 285.731 172.601 291.199 176.414C296.345 180.227 304.385 189.124 308.888 196.115C317.25 209.461 326.899 212.003 328.828 201.517C330.436 192.62 320.466 175.461 310.496 169.423C300.526 163.703 286.053 162.115 283.158 166.563Z" fill="#2D2D2D"/>
<path d="M363.853 226.886C353.389 275.421 307.94 312.881 267.395 306.041C248.758 303.109 228.812 292.36 195.461 267.603C167.668 247.082 153.608 241.218 137.586 243.499C130.393 244.476 129.739 245.779 130.066 262.717C130.72 297.246 158.84 336.986 196.442 355.554C213.117 364.349 217.695 365 250.719 365C284.071 365 287.994 364.349 305.651 355.554C327.885 344.153 349.793 322.002 362.218 297.897C369.738 283.565 371.373 274.77 372.681 250.665C374.316 213.53 369.411 200.501 363.853 226.886Z" fill="#2D2D2D"/>
</svg>
